<svg width="28" height="28" viewBox="0 0 28 28" fill="none" xmlns="http://www.w3.org/2000/svg">
<path d="M10.7017 11.815C10.7017 12.3295 10.3123 12.7011 9.88663 12.7011C9.46094 12.7011 9.07153 12.3295 9.07153 11.815C9.07153 11.3004 9.46094 10.9288 9.88663 10.9288C10.3123 10.9288 10.7017 11.3004 10.7017 11.815Z" stroke="#936917"/>
<path fill-rule="evenodd" clip-rule="evenodd" d="M12.4129 6.0312C12.3889 5.5975 12.3167 5.18623 12.202 4.79903C11.6527 2.94445 10.158 1.75387 8.57788 1.37826C7.00139 1.0035 5.25348 1.4292 4.28898 2.91956C3.36346 4.34968 3.2669 6.59928 4.48973 9.67988V15.6375C4.48973 15.7848 4.54626 15.9265 4.64767 16.0334L14.1332 26.0274L14.1331 26.0274L14.1374 26.0318C14.3529 26.254 14.6096 26.4312 14.8935 26.5524C15.1774 26.6736 15.4824 26.7363 15.7908 26.7363C16.0992 26.7363 16.4042 26.6736 16.6881 26.5524C16.972 26.4312 17.2287 26.254 17.4442 26.0318L23.7301 19.5566L23.7313 19.5553C24.163 19.108 24.4024 18.5063 24.4024 17.8826C24.4024 17.2598 24.1637 16.659 23.7332 16.2119L23.7313 16.2099L14.2493 6.21055C14.1407 6.09605 13.9899 6.0312 13.8321 6.0312H12.4129ZM11.3569 7.1812C11.1793 8.34659 10.6184 9.71935 9.48278 11.2792C9.32024 11.5024 9.36946 11.8151 9.5927 11.9777C9.81594 12.1402 10.1287 12.091 10.2912 11.8678C11.5416 10.1503 12.1856 8.57375 12.3672 7.1812H13.5849L22.9003 17.0049L22.9003 17.0049L22.9038 17.0085C23.1252 17.238 23.2524 17.552 23.2524 17.8826C23.2524 18.2131 23.1254 18.5269 22.9041 18.7564L22.9038 18.7568L16.6188 25.231L16.6186 25.2312C16.5083 25.3449 16.3783 25.4342 16.2364 25.4948C16.0946 25.5553 15.9432 25.5863 15.7908 25.5863C15.6383 25.5863 15.4869 25.5553 15.3451 25.4948C15.2041 25.4346 15.0748 25.346 14.965 25.2332L5.63973 15.4081V7.1812H11.3569ZM11.4104 6.0312C11.3877 5.69088 11.3295 5.37456 11.2432 5.08301C10.8061 3.60727 9.6159 2.65289 8.3466 2.35115C7.07372 2.04856 5.80787 2.41313 5.12852 3.46287C4.7294 4.07959 4.49411 4.99041 4.6154 6.24738C4.72076 6.11561 4.88289 6.0312 5.06473 6.0312H11.4104Z" fill="#625952"/>
</svg>
