<svg xmlns="http://www.w3.org/2000/svg" width="39" height="41" viewBox="0 0 39 41">
    <g fill="none" fill-rule="evenodd">
        <g>
            <g>
                <g>
                    <path stroke="#FFF" d="M6.9 24c-.6-1.8-.9-3.8-.9-5.8V7.9c0-.1 0-.3.2-.3.1-.1.3-.1.4-.1.9.2 1.8.3 2.6.3 7.1 0 12.2-6.9 12.3-7 .1-.1.2-.2.3-.2h0c.1 0 .3.1.3.2.1.1 6.6 8.8 15 6.7.1 0 .3 0 .4.1.1.1.2.2.2.3v10.2c0 3.1-.7 6-2.1 8.6C33.8 30 30 35 22.1 39.6h-.5c-2.4-1.4-4.4-2.9-6.1-4.3" transform="translate(-836 -5860) translate(-3 5799) translate(839 61)"/>
                    <path fill="#FFF" fill-rule="nonzero" d="M23.9 26.1c0-.8-.5-1.5-.7-1.7.4-.7.6-2-.5-3-1.7-1.6-6.2-.6-6.4-.6-.3.1-.6.1-1 .2h-.1-.1c-.1 0-.5-.5.5-3.5.7-2.1.6-3.7-.1-4.7s-2-1.1-2.3-1.1c-.3 0-.5.1-.7.3-.5.6-.4 1.9-.3 2.3-.3.7-2.4 6.3-4.4 7.8-.6.6-.9 1.3-1.1 1.8-.3-.3-.7-.5-1.2-.5H2.3c-1 0-1.8.8-1.8 1.8v8.4c0 1 .8 1.8 1.8 1.8h3.2c.5 0 .9-.2 1.2-.5l1.3.2s3.5.5 6.9.4c.6.1 1.2.1 1.7.1.9 0 1.7-.1 2.3-.2 1.5-.3 2.5-.9 3-1.8.5-.8.4-1.6.3-1.9 1.7-1.4 1.2-3.1.9-3.6.5-.6.8-1.3.8-2zM6.6 33.7c0 .6-.5 1.1-1.1 1.1H2.3c-.6 0-1.1-.5-1.1-1.1v-8.4c0-.6.5-1.1 1.1-1.1h3.2c.4 0 .8.3 1 .6 0 .1 0 .2.1.2V33.7zm15-2.3c-.1.1-.2.2-.1.4 0 0 .3.8-.2 1.6-.4.7-1.3 1.2-2.5 1.5-1 .2-2.3.3-3.9.1-3.4.1-6.8-.4-6.8-.4l-1-.2c.1-.2.2-.5.2-.7v-8.4c0-.2 0-.4-.1-.6.1-.4.4-1.3 1.1-2.1 2.3-1.7 4.5-7.9 4.6-8.2v-.2c-.1-.5-.1-1.5.2-1.8.1-.1.1-.1.2-.1.3 0 1.2.1 1.8.9.6.8.6 2.3 0 4.1-1 3.2-.7 3.9-.4 4.2.3.2.6.2.8.1.3-.1.6-.1.9-.2 1.2-.3 4.5-.7 5.8.4 1.1 1 .3 2.3.2 2.4-.1.1-.1.3.1.4 0 0 .7.6.7 1.5 0 .6-.2 1.1-.7 1.7-.1.1-.1.3 0 .4 0 .1 1 1.7-.9 3.2z" transform="translate(-836 -5860) translate(-3 5799) translate(839 61)"/>
                </g>
            </g>
        </g>
    </g>
</svg>
