<svg width="30" height="30" viewBox="0 0 30 30" fill="none" xmlns="http://www.w3.org/2000/svg">
<path fill-rule="evenodd" clip-rule="evenodd" d="M16.4923 14.5273C16.6673 14.335 16.6673 14.0303 16.4923 13.8543L15.9366 13.2745C15.7616 13.0986 15.476 13.0986 15.3001 13.2745C15.1251 13.4678 15.1251 13.7735 15.3001 13.9504L15.8577 14.5273C16.0317 14.7196 16.3173 14.7196 16.4923 14.5273ZM9.02077 13.5417C7.50947 13.5417 6.64321 14.4704 6.64307 16.3757C6.64321 18.3617 7.50851 19.2096 9.00539 19.1952C9.80725 19.1952 10.5312 18.8423 10.8937 18.3298C10.9418 18.2664 10.9725 18.1856 10.9725 18.0895C10.9725 17.8491 10.7831 17.6568 10.563 17.6568C10.4534 17.6568 10.3582 17.7059 10.2322 17.8337C9.8707 18.2174 9.57169 18.3625 9.00539 18.3625C7.99681 18.3625 7.54011 17.7847 7.54011 16.3761C7.54011 15.0474 7.99585 14.3898 9.00539 14.3898C9.5563 14.3898 9.88609 14.583 10.2014 14.9503C10.2957 15.0628 10.4062 15.1109 10.5158 15.1109C10.736 15.1109 10.9254 14.9186 10.9254 14.6782C10.9254 14.583 10.9091 14.5032 10.8476 14.4071C10.5312 13.9263 9.9332 13.5417 9.02077 13.5417ZM14.8386 18.5645C14.8386 18.3251 14.6665 18.1328 14.4136 18.1328V18.1482H12.6157V14.0389C12.6157 13.7832 12.4109 13.5755 12.1734 13.5755C11.9369 13.5755 11.733 13.7832 11.733 14.038V18.5472C11.733 18.803 11.9061 18.9953 12.158 18.9953H14.4136C14.6655 18.9953 14.8386 18.803 14.8386 18.5645ZM16.3923 18.5329C16.3923 18.7886 16.1914 18.9944 15.9299 18.9944C15.6828 18.9944 15.4674 18.7886 15.4674 18.5329V15.5677C15.4674 15.3129 15.6674 15.1062 15.9289 15.1062C16.176 15.1062 16.3923 15.3129 16.3923 15.5677V18.5329ZM19.5556 14.3735C19.6661 14.3572 19.7613 14.3572 19.8555 14.3572C20.2834 14.3572 20.6632 14.4841 20.9785 14.7562C21.3891 15.0735 21.6583 15.5369 21.7381 16.0792C21.7852 16.334 21.7689 16.6051 21.7064 16.8772C21.6419 17.131 21.5323 17.3704 21.3891 17.5771C21.1843 17.8656 20.916 18.104 20.5834 18.2482C20.4476 18.3088 20.2978 18.3396 20.1466 18.3706L20.1248 18.3751C20.0142 18.3915 19.92 18.3915 19.8238 18.3915C19.3979 18.3915 19.0018 18.2626 18.6547 17.9925C18.4489 17.8319 18.2749 17.6425 18.1489 17.4185C18.0057 17.1945 17.9278 16.9397 17.8797 16.6685C17.848 16.4138 17.8643 16.1426 17.9278 15.8878C17.9903 15.6321 18.1009 15.3927 18.2585 15.186C18.4018 14.9792 18.5912 14.8043 18.8124 14.66C18.8833 14.612 18.9452 14.5821 19.0116 14.5501C19.0342 14.5392 19.0574 14.528 19.0816 14.5158C19.2239 14.4533 19.3979 14.4043 19.5556 14.3735ZM22.3073 19.427C22.1794 19.427 22.0698 19.379 21.99 19.2848L21.3891 18.6617L21.216 18.7742C21.168 18.8059 21.1362 18.8223 21.1045 18.8377H21.0891C21.0556 18.8547 21.0174 18.872 20.9793 18.8892C20.9462 18.9042 20.9133 18.9191 20.8834 18.9338C20.6786 19.03 20.4565 19.0925 20.2354 19.1242C20.1084 19.1405 19.9661 19.1578 19.8238 19.1578C19.6027 19.1578 19.3816 19.1242 19.1604 19.0771C18.8278 18.9809 18.5114 18.8213 18.2278 18.6146C17.9432 18.3916 17.7057 18.1358 17.5317 17.8329L17.5243 17.8204C17.4796 17.7447 17.4349 17.6691 17.4058 17.5935C17.2942 17.3532 17.2327 17.1147 17.1837 16.8609V16.7484L17.1833 16.7451C17.168 16.6184 17.1529 16.4927 17.1529 16.3821C17.1529 16.2061 17.1683 16.0312 17.201 15.8552C17.2071 15.8284 17.2107 15.8041 17.214 15.7814C17.2184 15.7511 17.2224 15.7235 17.2317 15.6966C17.3269 15.3456 17.4683 15.0264 17.6904 14.7226C17.8961 14.4361 18.1644 14.1813 18.4643 13.9909C18.5749 13.9102 18.7018 13.8467 18.8278 13.7986C19.0335 13.7188 19.2393 13.6544 19.4614 13.6063L19.4847 13.6037C19.6047 13.5899 19.7373 13.5746 19.8556 13.5746C20.0931 13.5746 20.3142 13.6073 20.5363 13.6708C20.5536 13.6805 20.5667 13.6848 20.5803 13.6892C20.5908 13.6926 20.6017 13.6962 20.6151 13.7025H20.6305C21.1843 13.8784 21.6737 14.2601 22.0054 14.7563C22.0535 14.8187 22.0852 14.8668 22.1169 14.9312C22.2592 15.1697 22.3544 15.4254 22.4169 15.6793C22.4486 15.7927 22.465 15.9033 22.4813 16.0158C22.5121 16.3648 22.4967 16.7176 22.4169 17.0513C22.3544 17.307 22.2592 17.5772 22.1169 17.8176L22.0064 17.9925L22.6073 18.6146C22.7804 18.8059 22.7804 19.0925 22.6073 19.2684C22.5438 19.3799 22.4342 19.427 22.3073 19.427Z" fill="#936917"/>
<path fill-rule="evenodd" clip-rule="evenodd" d="M4 7.15H26C26.4694 7.15 26.85 7.53056 26.85 8V8.5H3.15V8C3.15 7.53056 3.53056 7.15 4 7.15ZM2 10.3571V8.5V8C2 6.89543 2.89543 6 4 6H26C27.1046 6 28 6.89543 28 8V8.5V10.3571V22C28 23.1046 27.1046 24 26 24H4C2.89543 24 2 23.1046 2 22V10.3571ZM26.85 10.3571V22C26.85 22.4694 26.4694 22.85 26 22.85H4C3.53056 22.85 3.15 22.4694 3.15 22V10.3571H26.85Z" fill="#1C1A17"/>
</svg>