<svg xmlns="http://www.w3.org/2000/svg" width="40" height="36" viewBox="0 0 40 36">
    <g fill="none" fill-rule="evenodd">
        <g fill="#FFF" fill-rule="nonzero">
            <g>
                <path d="M1038 76.006c0-2.106-.819-4.087-2.303-5.576l-5.103-5.12c-1.477-1.482-3.435-2.296-5.517-2.296h-.057c-2.113.015-4.118.87-5.647 2.406L1018 66.797l-1.482-1.487c-1.485-1.49-3.458-2.31-5.558-2.31-2.099 0-4.073.82-5.558 2.31l-5.103 5.12c-3.065 3.075-3.065 8.078 0 11.153l3.215 3.225c-.035 1.024.377 2.016 1.163 2.751.722.678 1.675 1.063 2.592 1.07.065.937.487 2.102 1.177 2.739.614.608 1.49.96 2.382.975.055.908.501 1.928 1.144 2.521.625.575 1.697 1.163 2.73 1.25.36 1.497 1.023 2.314 2.172 2.7.203.068.632.186 1.166.186.654 0 1.465-.177 2.212-.842.072-.074.206-.198.378-.36 1.416-1.331 2.758-2.68 3.266-3.717.933.377 2.214.386 3.01-.234 1.01-.723 1.322-1.824 1.207-2.828.959.122 2.06-.26 2.677-.868.646-.64 1.027-1.738.836-2.712.85.042 2.004-.121 2.9-1.07 1.008-1.067.749-2.57.472-3.111-.012-.025-.027-.05-.044-.072-.016-.022-.034-.043-.053-.062l-.367-.374 1.164-1.167c1.484-1.49 2.302-3.47 2.302-5.577zm-32.66 10.841c-.59-.552-.888-1.264-.858-2.017l4.4-4.278c.213-.232.689-.478 1.233-.478h.015c.544.005 1.034.246 1.455.718.99 1.106.51 2.296.385 2.558l-4.425 4.287c-.752.084-1.584-.208-2.205-.79zm3.776 3.815c-.55-.506-.902-1.634-.878-2.343l4.394-4.256c.344-.126 1.783-.574 2.682.318.895.888.669 1.908.58 2.197l-4.766 4.777c-.739.07-1.497-.183-2.012-.693zm2.685 1.395l4.813-4.824c.23-.124 1.244-.558 2.453.733.82.876.519 2.06.416 2.381l-4.592 4.798c-.716-.027-1.646-.432-2.262-.998-.515-.476-.87-1.395-.828-2.09zm8.165 5.03c-.185.172-.327.307-.38.364-.944.839-2.078.547-2.402.438-.837-.28-1.284-.885-1.557-2.107l4.579-4.784c.777-.487 1.858.112 2.254.596.506.621.643 1.533.671 1.77-.15.888-2.413 3.017-3.165 3.723zm13.855-11.389c-.869.922-2.127.814-2.72.697l-7.73-7.823c-.189-.191-.496-.192-.687-.003-.19.19-.191.498-.002.689l7.792 7.888c.447.66.175 1.777-.365 2.312-.535.529-1.779.83-2.416.413-.01-.006-.02-.008-.03-.013l-7.894-8.118c-.188-.192-.496-.195-.686-.008-.193.188-.196.497-.01.688l7.948 8.172c.278.809.177 1.848-.694 2.474-.547.424-1.621.357-2.255.02-.07-.452-.28-1.392-.863-2.11-.534-.655-1.606-1.244-2.64-1.118.076-.716-.009-1.72-.795-2.56-1.012-1.081-2.055-1.284-2.823-1.18.04-.664-.109-1.591-.954-2.43-.897-.89-2.077-.896-2.886-.756.14-.798.038-1.852-.803-2.792-.762-.851-1.6-1.036-2.17-1.04h-.023c-.74 0-1.501.307-1.928.77l-4.175 4.06-3.027-3.038c-2.686-2.694-2.686-7.08 0-9.774l5.103-5.12c1.302-1.306 3.032-2.025 4.872-2.025 1.84 0 3.57.72 4.87 2.025l1.483 1.487s-6.312 6.278-6.841 6.882c-.253.289-.365.644-.324 1.028.064.61.507 1.237 1.28 1.814 2.2 1.639 5.087 1.422 7.185-.54.988-.924 3.481-3.376 4.4-4.281l10.493 10.702v.001l.648.66c.098.264.324 1.251-.333 1.947zm.03-3.642l-10.487-10.697c-.091-.092-.213-.145-.343-.146-.122.02-.253.05-.344.14-.034.034-3.52 3.477-4.727 4.604-1.743 1.63-4.132 1.82-5.942.47-.526-.391-.86-.815-.894-1.134-.012-.112.015-.199.088-.281.359-.41 8.858-8.903 8.858-8.903 1.346-1.354 3.11-2.107 4.967-2.12 1.856-.002 3.575.7 4.881 2.01l5.104 5.12c1.301 1.306 2.017 3.041 2.017 4.887 0 1.846-.717 3.582-2.017 4.887l-1.16 1.163z" transform="translate(-995 -5862) translate(-3 5799)"/>
            </g>
        </g>
    </g>
</svg>
