<svg xmlns="http://www.w3.org/2000/svg" width="45" height="26" viewBox="0 0 45 26">
    <g fill="none" fill-rule="evenodd">
        <g>
            <g>
                <g>
                    <path fill="#FFF" d="M28.464 0c1.26 0 2.276 1.054 2.276 2.325v.109h5.405c.702 0 1.28.441 1.817 1.014.537.573 1.043 1.332 1.533 2.153.982 1.643 1.871 3.563 2.466 4.759.013.025.023.05.032.078h.869c.911 0 1.643.751 1.643 1.653v8.098c0 .902-.72 1.685-1.643 1.685h-3.967c-.245 2.285-2.165 4.088-4.52 4.088-2.355 0-4.275-1.803-4.52-4.088H15.22c-.248 2.287-2.181 4.088-4.536 4.088-2.338 0-4.273-1.801-4.52-4.088H2.276C1.009 21.874 0 20.804 0 19.549V2.325C0 1.055 1.016 0 2.276 0h26.188zm0 .999H2.276c-.698 0-1.265.571-1.265 1.326v17.224c0 .729.575 1.326 1.265 1.326h3.888c.24-2.294 2.176-4.119 4.52-4.119 2.362 0 4.279 1.822 4.52 4.12h14.524V2.324c0-.755-.567-1.326-1.264-1.326zm7.68 2.433H30.74v7.006h10.13c-.597-1.218-1.383-2.88-2.244-4.322-.47-.788-.954-1.499-1.406-1.981-.453-.483-.86-.703-1.075-.703zm6.718 8.004H30.74v7.177c.826-1.12 2.14-1.857 3.635-1.857 2.449.064 4.34 1.537 4.504 4.12h3.983c.342 0 .632-.308.632-.687V12.09c0-.379-.28-.655-.632-.655zm-8.487 6.319c-1.963 0-3.54 1.606-3.54 3.62 0 1.99 1.577 3.588 3.54 3.588s3.524-1.598 3.524-3.588c-.142-2.405-1.688-3.6-3.524-3.62zm-23.691 0c-1.97-.036-3.491 1.96-3.54 3.62 0 1.987 1.6 3.588 3.54 3.588 1.963 0 3.54-1.6 3.54-3.588.057-2.308-1.811-3.569-3.54-3.62z" transform="translate(-1153 -5867) translate(-3 5799) translate(1156 68)"/>
                    <path fill="#000" fill-rule="nonzero" stroke="#FFF" stroke-width=".5" d="M16.055 3.71c-.03.003-.057.014-.08.033l-2.717 1.953c-.04.029-.063.074-.063.123 0 .048.023.093.063.122l2.717 1.953c.067.05.162.035.212-.033.05-.067.035-.162-.033-.211l-2.34-1.681h5.722c.639 0 1.247.186 1.688.559.442.372.727.927.727 1.695 0 .772-.25 1.283-.651 1.615-.4.332-.969.488-1.613.488-.055 0-.105.028-.132.075-.028.047-.028.105 0 .151.027.047.077.076.132.075.693 0 1.334-.167 1.806-.559.473-.392.76-1.006.76-1.845 0-.844-.328-1.499-.835-1.926-.507-.426-1.183-.629-1.882-.629h-5.722l2.34-1.68c.06-.038.087-.112.063-.18-.024-.066-.091-.107-.162-.098h0zm-4.217 4.212c-.693 0-1.334.163-1.807.554-.472.392-.759 1.011-.759 1.85 0 .844.328 1.494.835 1.92.507.428 1.183.635 1.882.635h5.721l-2.34 1.68c-.043.033-.066.085-.06.14.005.053.04.1.09.121.049.022.106.016.15-.016l2.717-1.953c.04-.029.063-.074.063-.122 0-.049-.023-.094-.063-.123l-2.717-1.953c-.028-.022-.063-.034-.099-.033-.067 0-.126.045-.144.109-.019.064.007.132.064.168l2.34 1.681h-5.722c-.64 0-1.247-.191-1.689-.563-.442-.372-.726-.923-.726-1.69 0-.773.25-1.288.65-1.62.402-.333.97-.484 1.614-.484.054 0 .105-.028.132-.075.028-.047.028-.105 0-.151-.027-.047-.078-.076-.132-.075z" transform="translate(-1153 -5867) translate(-3 5799) translate(1156 68)"/>
                </g>
            </g>
        </g>
    </g>
</svg>
