<svg width="145" height="40" viewBox="0 0 145 40" fill="none" xmlns="http://www.w3.org/2000/svg">
<path d="M25.803 10.4143C25.2685 10.9585 25.2685 11.8406 25.803 12.3847L27.4839 14.0958C28.0185 14.6399 28.8873 14.6399 29.4219 14.0958C29.9564 13.5517 29.9564 12.6672 29.4219 12.1208L27.7432 10.412C27.4748 10.1388 27.1245 10.0022 26.7742 10.0022C26.4217 10.0045 26.0714 10.1388 25.803 10.4143Z" fill="#5656AF"/>
<path d="M25.8394 1.00232L22.7073 7.97392H25.8348L27.5408 3.75299L29.2422 7.97392H32.3629L29.2422 1.00232H25.8394ZM15.8607 1.00232V3.0329H18.0648V7.97392H21.1446V3.03059H23.3578V1H15.8607V1.00232ZM9.98774 1.00232L6.8579 7.97392H9.97637L11.6778 3.75299L13.386 7.97392H16.4999L13.3814 1.00232H9.98774ZM0 1.00232V3.0329H2.21091V7.97392H5.29071V3.03059H7.50161V1H0V1.00232Z" fill="#000104"/>
<path d="M0 20.2385C0 26.1288 2.67037 28.6526 7.33102 28.6526C9.83989 28.6526 12.044 27.5921 13.1676 26.0547C13.3064 25.8602 13.4019 25.6217 13.4019 25.3323C13.4019 24.6146 12.8378 24.0357 12.135 24.0357C11.8051 24.0357 11.5026 24.1793 11.1273 24.5636C10.0037 25.7398 9.06426 26.1497 7.33102 26.1497C4.2171 26.1497 2.80912 24.4432 2.80912 20.2385C2.80912 16.2722 4.2171 14.3042 7.33102 14.3042C9.04151 14.3042 10.0514 14.9015 11.009 15.9875C11.3138 16.3232 11.6436 16.4667 11.9712 16.4667C12.674 16.4667 13.2359 15.8902 13.2359 15.1956C13.2359 14.9316 13.1676 14.6908 12.9788 14.4037C12.0167 12.9613 10.1674 11.8059 7.33102 11.8059C2.67037 11.8059 0 14.545 0 20.2385Z" fill="#000104"/>
<path d="M15.6038 13.3433V26.9716C15.6038 27.7426 16.1633 28.3168 16.9367 28.3168H23.8719C24.643 28.3168 25.1821 27.7658 25.1821 27.0179C25.1821 26.2978 24.643 25.7213 23.8719 25.7213H18.3173V13.3433C18.3173 12.5746 17.71 11.9494 16.9594 11.9494C16.2111 11.9494 15.6038 12.5746 15.6038 13.3433Z" fill="#000104"/>
<path d="M27.104 17.8699V26.923C27.104 27.6917 27.7159 28.3168 28.4619 28.3168C29.2148 28.3168 29.8244 27.6917 29.8244 26.923V17.8699C29.8244 17.1011 29.2148 16.4737 28.4619 16.4737C27.7136 16.4737 27.104 17.1011 27.104 17.8699Z" fill="#000104"/>
<path d="M39.0639 11.8452C38.3838 11.9564 37.7333 12.1439 37.1237 12.4032C36.7256 12.5723 36.3458 12.7737 35.9955 13.0006C35.0856 13.5633 34.2963 14.2995 33.6458 15.1817C32.9953 16.0685 32.529 17.0479 32.2629 18.0898C32.2265 18.2311 32.1923 18.3816 32.1559 18.5691C32.0581 19.0947 32.0104 19.6226 32.0104 20.1459C32.0104 20.5024 32.0354 20.8775 32.0832 21.2549L32.1036 21.3939C32.1059 21.4216 32.1105 21.4471 32.1173 21.4842L32.1309 21.5629C32.2606 22.3409 32.4903 23.0841 32.8133 23.7787C32.9339 24.0265 33.0681 24.2742 33.2136 24.515C33.7618 25.4388 34.4806 26.2376 35.3518 26.8883C36.2184 27.5343 37.176 28.002 38.2041 28.2775C38.8887 28.4488 39.578 28.5368 40.2467 28.5368C40.6607 28.5368 41.0792 28.5021 41.4818 28.4372C42.1551 28.3284 42.817 28.1339 43.4448 27.8677C43.6563 27.7727 43.8724 27.6732 44.0794 27.562L44.1249 27.5412C44.2272 27.4856 44.3387 27.4185 44.4615 27.3421L44.996 27.011L46.8385 28.9003C47.0955 29.1643 47.4389 29.3078 47.8029 29.3078C48.1691 29.3078 48.5103 29.162 48.7673 28.9003C49.3064 28.3446 49.3064 27.4787 48.7673 26.923L46.9203 25.0313L47.2388 24.4826C47.6664 23.7486 47.9803 22.9753 48.1691 22.188C48.4011 21.1901 48.4625 20.1505 48.3488 19.0924C48.3078 18.7358 48.2442 18.3931 48.1645 18.0736C47.9667 17.2771 47.6482 16.5154 47.2274 15.7976C47.1364 15.6401 47.0318 15.4711 46.9044 15.2882C45.8695 13.7855 44.3637 12.6603 42.6714 12.1185L42.6441 12.1092C42.5668 12.0837 42.4849 12.0652 42.3984 12.0374L42.3757 12.0328C41.6956 11.8476 40.9927 11.7549 40.2853 11.7549C39.8782 11.7549 39.4665 11.7827 39.0639 11.8452ZM36.6801 25.0128C36.0592 24.5544 35.5201 23.9593 35.1266 23.2948C34.7058 22.6118 34.4419 21.8755 34.3191 21.0466C34.194 20.2802 34.2349 19.4675 34.4487 18.6872C34.6421 17.9069 34.9787 17.1915 35.4473 16.564C35.8954 15.9411 36.4504 15.4179 37.1373 14.9664L37.1555 14.9548C37.408 14.7974 37.6787 14.6607 37.963 14.5357C38.4247 14.3412 38.9138 14.2 39.4165 14.1189C39.7144 14.075 40.0147 14.0495 40.3126 14.0495C41.5841 14.0495 42.7874 14.4639 43.7973 15.2442C45.0302 16.1958 45.849 17.6152 46.106 19.2336C46.2175 20.0116 46.1765 20.8127 45.99 21.6185C45.7921 22.4103 45.4691 23.1188 45.0233 23.7278C44.3864 24.6331 43.5266 25.3346 42.5326 25.7584C42.0891 25.9482 41.6205 26.0825 41.1429 26.1566C40.8449 26.2029 40.5424 26.2237 40.2467 26.2237C38.9593 26.2284 37.7264 25.8093 36.6801 25.0128Z" fill="#000104"/>
<path d="M55.7094 26.9833V12.9729C55.7094 12.151 56.1802 11.6485 56.9649 11.6485C57.7383 11.6485 58.2205 12.151 58.2205 12.9729V26.0942H64.7713C65.4674 26.0942 65.9382 26.5271 65.9382 27.2009C65.9382 27.8747 65.4674 28.3077 64.7713 28.3077H56.9649C56.1825 28.3077 55.7094 27.8052 55.7094 26.9833Z" fill="#000104" stroke="#000104" stroke-width="0.5" stroke-miterlimit="10"/>
<path d="M67.7828 22.5191V12.9728C67.7828 12.1509 68.2537 11.6484 69.0384 11.6484C69.8118 11.6484 70.294 12.1509 70.294 12.9728V22.3015C70.294 24.6539 71.752 26.3094 74.3314 26.3094C76.9108 26.3094 78.3802 24.6539 78.3802 22.3015V12.9728C78.3802 12.1509 78.851 11.6484 79.6357 11.6484C80.4091 11.6484 80.8799 12.1509 80.8799 12.9728V22.5191C80.8799 26.0709 78.3893 28.5831 74.3291 28.5831C70.2735 28.5831 67.7828 26.0709 67.7828 22.5191Z" fill="#000104" stroke="#000104" stroke-width="0.5" stroke-miterlimit="10"/>
<path d="M83.9825 27.3838C83.9825 27.0874 84.0713 26.8234 84.2851 26.5155L88.7933 20.0533V19.9745L84.4079 13.7508C84.1622 13.4197 84.0826 13.1581 84.0826 12.8478C84.0826 12.1625 84.6444 11.6484 85.3723 11.6484C85.8545 11.6484 86.1457 11.8429 86.5051 12.3801L90.4651 18.2033H90.5538L94.6026 12.3106C94.9279 11.8314 95.1735 11.6484 95.6467 11.6484C96.3199 11.6484 96.8795 12.1393 96.8795 12.7436C96.8795 13.04 96.7908 13.3039 96.577 13.6119L91.9436 20.0625V20.132L96.4314 26.4576C96.6338 26.7308 96.7339 27.0179 96.7339 27.3259C96.7339 27.9881 96.1835 28.4905 95.4897 28.4905C95.0189 28.4905 94.7277 28.3076 94.4025 27.8399L90.3651 22.0283H90.2877L86.2503 27.8283C85.9023 28.3307 85.6566 28.4905 85.1858 28.4905C84.508 28.4905 83.9825 27.9996 83.9825 27.3838Z" fill="#000104" stroke="#000104" stroke-width="0.5" stroke-miterlimit="10"/>
<path d="M99.9684 22.5191V12.9728C99.9684 12.1509 100.439 11.6484 101.224 11.6484C101.997 11.6484 102.48 12.1509 102.48 12.9728V22.3015C102.48 24.6539 103.938 26.3094 106.517 26.3094C109.096 26.3094 110.566 24.6539 110.566 22.3015V12.9728C110.566 12.1509 111.037 11.6484 111.821 11.6484C112.595 11.6484 113.065 12.1509 113.065 12.9728V22.5191C113.065 26.0709 110.575 28.5831 106.515 28.5831C102.459 28.5831 99.9684 26.0709 99.9684 22.5191Z" fill="#000104" stroke="#000104" stroke-width="0.5" stroke-miterlimit="10"/>
<path d="M117.064 27.2008V13.1557C117.064 12.3338 117.535 11.8313 118.32 11.8313H123.333C126.665 11.8313 128.74 13.7948 128.74 16.8673C128.74 19.0715 127.596 20.8521 125.655 21.549L128.392 26.4715C128.594 26.8257 128.66 27.0642 128.66 27.3513C128.66 28.0251 128.11 28.5275 127.382 28.5275C126.799 28.5275 126.495 28.3099 126.126 27.6361L123.085 21.9727H119.573V27.2031C119.573 28.0251 119.08 28.5275 118.318 28.5275C117.546 28.5252 117.064 28.0228 117.064 27.2008ZM123.099 19.9051C125.039 19.9051 126.149 18.8192 126.149 16.9368C126.149 15.0983 124.971 13.98 123.03 13.98H119.575V19.9074H123.099V19.9051Z" fill="#000104" stroke="#000104" stroke-width="0.5" stroke-miterlimit="10"/>
<path d="M136.091 27.1661V21.5583L130.964 13.6443C130.773 13.3595 130.707 13.0955 130.707 12.8108C130.707 12.137 131.246 11.6461 131.951 11.6461C132.468 11.6461 132.759 11.8406 133.073 12.3662L137.324 19.104H137.404L141.655 12.3662C141.957 11.8522 142.271 11.6461 142.765 11.6461C143.461 11.6461 144 12.137 144 12.7992C144 13.084 143.932 13.3479 143.743 13.6443L138.605 21.5583V27.1661C138.605 27.9881 138.134 28.4905 137.349 28.4905C136.573 28.4905 136.091 27.9881 136.091 27.1661Z" fill="#000104" stroke="#000104" stroke-width="0.5" stroke-miterlimit="10"/>
<path d="M0.921255 38.1804L0.0387128 34.955C0.0136923 34.8647 0.00231934 34.7906 0.00231934 34.7258C0.00231934 34.5267 0.14107 34.3994 0.352607 34.3994C0.536849 34.3994 0.652853 34.5035 0.69607 34.7027L1.36025 37.5135H1.383L2.11314 34.742C2.17456 34.5012 2.29056 34.3994 2.49982 34.3994C2.69999 34.3994 2.82054 34.5059 2.87968 34.7328L3.60982 37.5135H3.63257L4.29675 34.7027C4.33997 34.5012 4.45597 34.3994 4.64022 34.3994C4.85175 34.3994 4.9905 34.5244 4.9905 34.7258C4.9905 34.7883 4.97913 34.8624 4.95411 34.955L4.06929 38.185C4.00333 38.4351 3.88278 38.5439 3.66442 38.5439C3.43468 38.5439 3.31413 38.4397 3.24589 38.185L2.5112 35.5686H2.4839L1.74921 38.185C1.68325 38.4374 1.55587 38.5439 1.33296 38.5439C1.11232 38.5416 0.989492 38.4327 0.921255 38.1804Z" fill="#5656AF"/>
<path d="M7.97473 38.1665V34.7744C7.97473 34.536 8.10893 34.3994 8.32957 34.3994C8.55248 34.3994 8.68441 34.536 8.68441 34.7744V36.1289H10.6178V34.7744C10.6178 34.536 10.7497 34.3994 10.9704 34.3994C11.1933 34.3994 11.3252 34.536 11.3252 34.7744V38.1665C11.3252 38.405 11.1933 38.5416 10.9704 38.5416C10.7497 38.5416 10.6178 38.405 10.6178 38.1665V36.7379H8.68441V38.1665C8.68441 38.405 8.55248 38.5416 8.32957 38.5416C8.10893 38.5416 7.97473 38.405 7.97473 38.1665Z" fill="#5656AF"/>
<path d="M14.4733 38.1178V34.8207C14.4733 34.5846 14.6075 34.4456 14.8281 34.4456H16.7661C16.9617 34.4456 17.0913 34.5637 17.0913 34.7513C17.0913 34.9388 16.9617 35.0569 16.7661 35.0569H15.1852V36.1521H16.6842C16.8661 36.1521 16.989 36.2609 16.989 36.4392C16.989 36.6152 16.8684 36.7286 16.6842 36.7286H15.1852V37.884H16.7661C16.9617 37.884 17.0913 38.0021 17.0913 38.1896C17.0913 38.3772 16.9617 38.4952 16.7661 38.4952H14.8281C14.6075 38.4952 14.4733 38.354 14.4733 38.1178Z" fill="#5656AF"/>
<path d="M20.1074 38.1757V34.8231C20.1074 34.5869 20.2416 34.448 20.4623 34.448H21.686C22.5458 34.448 23.0621 34.9342 23.0621 35.7075C23.0621 36.2354 22.7983 36.6661 22.3365 36.849L22.9643 37.972C23.0257 38.0762 23.0416 38.1364 23.0416 38.222C23.0416 38.4119 22.887 38.5531 22.6845 38.5531C22.5162 38.5531 22.4343 38.4906 22.3229 38.2915L21.6155 36.974H20.8194V38.178C20.8194 38.4142 20.6852 38.5531 20.4645 38.5531C20.2439 38.5508 20.1074 38.4096 20.1074 38.1757ZM21.62 36.416C22.0727 36.416 22.3343 36.1613 22.3343 35.7237C22.3343 35.2977 22.0568 35.0338 21.6064 35.0338H20.8194V36.416H21.62Z" fill="#5656AF"/>
<path d="M26.0806 38.1178V34.8207C26.0806 34.5846 26.2148 34.4456 26.4354 34.4456H28.3734C28.569 34.4456 28.6986 34.5637 28.6986 34.7513C28.6986 34.9388 28.569 35.0569 28.3734 35.0569H26.7902V36.1521H28.2892C28.4712 36.1521 28.594 36.2609 28.594 36.4392C28.594 36.6152 28.4734 36.7286 28.2892 36.7286H26.7902V37.884H28.3711C28.5667 37.884 28.6963 38.0021 28.6963 38.1896C28.6963 38.3772 28.5667 38.4952 28.3711 38.4952H26.4331C26.2148 38.4952 26.0806 38.354 26.0806 38.1178Z" fill="#5656AF"/>
<path d="M35.1561 36.4716C35.1561 35.1866 35.884 34.3785 37.044 34.3785C38.2018 34.3785 38.9297 35.1866 38.9297 36.4716C38.9297 37.2102 38.6931 37.796 38.2632 38.1433L38.5157 38.5091C38.5657 38.5856 38.5839 38.6411 38.5839 38.7175C38.5839 38.8819 38.4611 39 38.286 39C38.17 39 38.0926 38.956 38.0221 38.8449L37.7446 38.4466C37.5331 38.5254 37.2988 38.5624 37.044 38.5624C35.8817 38.5624 35.1561 37.7659 35.1561 36.4716ZM37.3761 37.9002L37.1555 37.583C37.1055 37.5066 37.0873 37.4464 37.0873 37.3816C37.0873 37.2195 37.2055 37.1037 37.3693 37.1037C37.4739 37.1037 37.5422 37.1408 37.6081 37.2334L37.8333 37.5506C38.0676 37.3098 38.2018 36.9393 38.2018 36.4739C38.2018 35.5709 37.7492 34.9921 37.0418 34.9921C36.3298 34.9921 35.8817 35.5709 35.8817 36.4739C35.8817 37.3769 36.3298 37.9511 37.0418 37.9511C37.1623 37.9511 37.2738 37.9303 37.3761 37.9002Z" fill="#5656AF"/>
<path d="M41.9368 37.0667V34.7744C41.9368 34.536 42.071 34.3994 42.2916 34.3994C42.5145 34.3994 42.6464 34.536 42.6464 34.7744V37.0018C42.6464 37.5552 42.9808 37.9303 43.5699 37.9303C44.159 37.9303 44.4957 37.5552 44.4957 37.0018V34.7744C44.4957 34.536 44.6276 34.3994 44.8505 34.3994C45.0712 34.3994 45.2031 34.536 45.2031 34.7744V37.0667C45.2031 37.9511 44.5776 38.5624 43.5699 38.5624C42.5668 38.5624 41.9368 37.9511 41.9368 37.0667Z" fill="#5656AF"/>
<path d="M48.1168 38.2081C48.1168 38.1526 48.1305 38.0739 48.1646 37.9859L49.3201 34.7906C49.4156 34.5221 49.5771 34.397 49.8364 34.397C50.098 34.397 50.2572 34.5151 50.3573 34.786L51.5151 37.9836C51.5492 38.0762 51.5628 38.141 51.5628 38.2058C51.5628 38.4026 51.415 38.5392 51.208 38.5392C51.0147 38.5392 50.9077 38.4489 50.8441 38.2336L50.5825 37.4603H49.0972L48.8356 38.229C48.7696 38.4489 48.665 38.5392 48.4808 38.5392C48.2578 38.5416 48.1168 38.4142 48.1168 38.2081ZM50.4028 36.8907L49.8387 35.1634H49.8205L49.2609 36.8907H50.4028Z" fill="#5656AF"/>
<path d="M54.5175 38.1179V34.7744C54.5175 34.536 54.6517 34.3994 54.8723 34.3994C55.0952 34.3994 55.2271 34.536 55.2271 34.7744V37.8817H56.7511C56.9445 37.8817 57.0764 37.9998 57.0764 38.1873C57.0764 38.3749 56.9467 38.4929 56.7511 38.4929H54.8723C54.6539 38.4953 54.5175 38.354 54.5175 38.1179Z" fill="#5656AF"/>
<path d="M59.9879 38.1665V34.7744C59.9879 34.536 60.1221 34.3994 60.3428 34.3994C60.5657 34.3994 60.6976 34.536 60.6976 34.7744V38.1665C60.6976 38.405 60.5657 38.5416 60.3428 38.5416C60.1244 38.5416 59.9879 38.405 59.9879 38.1665Z" fill="#5656AF"/>
<path d="M64.8169 38.1665V35.0592H63.9071C63.7137 35.0592 63.5818 34.9411 63.5818 34.7536C63.5818 34.5661 63.7114 34.448 63.9071 34.448H66.4341C66.6297 34.448 66.7594 34.5661 66.7594 34.7536C66.7594 34.9411 66.6275 35.0592 66.4341 35.0592H65.5243V38.1665C65.5243 38.405 65.3924 38.5416 65.1695 38.5416C64.9488 38.5416 64.8169 38.405 64.8169 38.1665Z" fill="#5656AF"/>
<path d="M70.7604 38.1665V36.8976L69.5185 34.9712C69.4684 34.8902 69.4457 34.8115 69.4457 34.7305C69.4457 34.5406 69.5981 34.3994 69.7982 34.3994C69.9461 34.3994 70.0325 34.4526 70.1235 34.61L71.1107 36.21H71.1266L72.116 34.61C72.2048 34.4596 72.2935 34.3994 72.4322 34.3994C72.6301 34.3994 72.7825 34.5406 72.7825 34.7281C72.7825 34.8115 72.7598 34.8879 72.7074 34.9712L71.4678 36.8976V38.1665C71.4678 38.405 71.3359 38.5416 71.113 38.5416C70.8923 38.5416 70.7604 38.405 70.7604 38.1665Z" fill="#5656AF"/>
<path d="M79.306 38.1665V34.7744C79.306 34.536 79.4402 34.3994 79.6609 34.3994C79.8838 34.3994 80.0157 34.536 80.0157 34.7744V38.1665C80.0157 38.405 79.8838 38.5416 79.6609 38.5416C79.4425 38.5416 79.306 38.405 79.306 38.1665Z" fill="#5656AF"/>
<path d="M83.0841 37.7659C83.0591 37.6988 83.0454 37.6247 83.0454 37.5575C83.0454 37.3561 83.1728 37.2264 83.3593 37.2264C83.5163 37.2264 83.6163 37.2913 83.6937 37.4533C83.8165 37.8029 84.16 37.9604 84.583 37.9604C85.063 37.9604 85.3996 37.7196 85.3996 37.3816C85.3996 37.0898 85.2017 36.9092 84.6831 36.8004L84.2555 36.7101C83.4594 36.5457 83.0864 36.1637 83.0864 35.5709C83.0864 34.8578 83.7005 34.3762 84.5626 34.3762C85.2654 34.3762 85.8113 34.6957 85.9728 35.2329C85.9887 35.2769 85.9978 35.3301 85.9978 35.3973C85.9978 35.5732 85.875 35.6936 85.6885 35.6936C85.5224 35.6936 85.4201 35.6195 85.3473 35.4644C85.2131 35.1217 84.9288 34.9759 84.5557 34.9759C84.1145 34.9759 83.8006 35.1889 83.8006 35.5292C83.8006 35.8048 83.9985 35.9807 84.4943 36.0873L84.9219 36.1776C85.759 36.3535 86.1116 36.6962 86.1116 37.2959C86.1116 38.0692 85.5133 38.5578 84.558 38.5578C83.7687 38.5624 83.2387 38.2267 83.0841 37.7659Z" fill="#5656AF"/>
<path d="M92.667 38.178V34.7721C92.667 34.5383 92.808 34.3994 93.0355 34.3994C93.1924 34.3994 93.288 34.4549 93.404 34.6147L95.2555 37.282H95.2805V34.7629C95.2805 34.5336 95.4102 34.397 95.6217 34.397C95.8355 34.397 95.9629 34.5313 95.9629 34.7629V38.1804C95.9629 38.4096 95.8332 38.5416 95.6012 38.5416C95.4397 38.5416 95.3442 38.4883 95.2327 38.3262L93.3744 35.6566H93.3494V38.178C93.3494 38.4073 93.2197 38.5439 93.0082 38.5439C92.7966 38.5416 92.667 38.4073 92.667 38.178Z" fill="#5656AF"/>
<path d="M99.1132 37.0667V34.7744C99.1132 34.536 99.2474 34.3994 99.468 34.3994C99.6909 34.3994 99.8228 34.536 99.8228 34.7744V37.0018C99.8228 37.5552 100.157 37.9303 100.746 37.9303C101.335 37.9303 101.672 37.5552 101.672 37.0018V34.7744C101.672 34.536 101.804 34.3994 102.027 34.3994C102.248 34.3994 102.379 34.536 102.379 34.7744V37.0667C102.379 37.9511 101.754 38.5624 100.746 38.5624C99.741 38.5624 99.1132 37.9511 99.1132 37.0667Z" fill="#5656AF"/>
<path d="M105.53 38.1757V34.8231C105.53 34.5869 105.664 34.448 105.885 34.448H107.108C107.968 34.448 108.484 34.9342 108.484 35.7075C108.484 36.2354 108.221 36.6661 107.759 36.849L108.387 37.972C108.448 38.0762 108.464 38.1364 108.464 38.222C108.464 38.4119 108.309 38.5531 108.105 38.5531C107.936 38.5531 107.854 38.4906 107.743 38.2915L107.036 36.974H106.239V38.178C106.239 38.4142 106.105 38.5531 105.885 38.5531C105.664 38.5508 105.53 38.4096 105.53 38.1757ZM107.042 36.416C107.495 36.416 107.757 36.1613 107.757 35.7237C107.757 35.2977 107.479 35.0338 107.029 35.0338H106.239V36.416H107.042Z" fill="#5656AF"/>
<path d="M112.474 38.1665V35.0592H111.564C111.371 35.0592 111.239 34.9411 111.239 34.7536C111.239 34.5661 111.369 34.448 111.564 34.448H114.091C114.287 34.448 114.417 34.5661 114.417 34.7536C114.417 34.9411 114.285 35.0592 114.091 35.0592H113.182V38.1665C113.182 38.405 113.05 38.5416 112.827 38.5416C112.606 38.5416 112.474 38.405 112.474 38.1665Z" fill="#5656AF"/>
<path d="M117.299 37.0667V34.7744C117.299 34.536 117.433 34.3994 117.653 34.3994C117.876 34.3994 118.008 34.536 118.008 34.7744V37.0018C118.008 37.5552 118.343 37.9303 118.932 37.9303C119.521 37.9303 119.858 37.5552 119.858 37.0018V34.7744C119.858 34.536 119.989 34.3994 120.212 34.3994C120.433 34.3994 120.565 34.536 120.565 34.7744V37.0667C120.565 37.9511 119.939 38.5624 118.932 38.5624C117.926 38.5624 117.299 37.9511 117.299 37.0667Z" fill="#5656AF"/>
<path d="M123.715 38.1757V34.8231C123.715 34.5869 123.849 34.448 124.07 34.448H125.294C126.154 34.448 126.67 34.9342 126.67 35.7075C126.67 36.2354 126.406 36.6661 125.944 36.849L126.572 37.972C126.634 38.0762 126.649 38.1364 126.649 38.222C126.649 38.4119 126.495 38.5531 126.29 38.5531C126.122 38.5531 126.04 38.4906 125.928 38.2915L125.221 36.974H124.425V38.178C124.425 38.4142 124.291 38.5531 124.07 38.5531C123.849 38.5508 123.715 38.4096 123.715 38.1757ZM125.228 36.416C125.68 36.416 125.942 36.1613 125.942 35.7237C125.942 35.2977 125.665 35.0338 125.214 35.0338H124.425V36.416H125.228Z" fill="#5656AF"/>
<path d="M129.686 38.1178V34.8207C129.686 34.5846 129.82 34.4456 130.041 34.4456H131.979C132.174 34.4456 132.304 34.5637 132.304 34.7513C132.304 34.9388 132.174 35.0569 131.979 35.0569H130.396V36.1521H131.895C132.077 36.1521 132.199 36.2609 132.199 36.4392C132.199 36.6152 132.079 36.7286 131.895 36.7286H130.396V37.884H131.979C132.174 37.884 132.304 38.0021 132.304 38.1896C132.304 38.3772 132.174 38.4952 131.979 38.4952H130.041C129.823 38.4952 129.686 38.354 129.686 38.1178Z" fill="#5656AF"/>
<path d="M135.323 38.1178V34.8207C135.323 34.5846 135.457 34.4456 135.677 34.4456H136.774C137.961 34.4456 138.664 35.1773 138.664 36.46C138.664 37.7427 137.963 38.4929 136.774 38.4929H135.677C135.457 38.4952 135.323 38.354 135.323 38.1178ZM136.701 37.884C137.499 37.884 137.941 37.3885 137.941 36.4647C137.941 35.5593 137.495 35.0592 136.701 35.0592H136.034V37.884H136.701Z" fill="#5656AF"/>
</svg>
